<?xml version="1.0" encoding="utf-8"?>
<!-- Generator: Adobe Illustrator 16.0.0, SVG Export Plug-In . SVG Version: 6.00 Build 0)  -->
<!DOCTYPE svg PUBLIC "-//W3C//DTD SVG 1.1//EN" "http://www.w3.org/Graphics/SVG/1.1/DTD/svg11.dtd">
<svg version="1.1" id="Layer_1" xmlns="http://www.w3.org/2000/svg" xmlns:xlink="http://www.w3.org/1999/xlink" x="0px" y="0px"
	 width="512px" height="512px" viewBox="0 0 512 512" enable-background="new 0 0 512 512" xml:space="preserve">
<g>
	<path fill="#39B54A" d="M392,60c33.1,0,60,26.9,60,60v272c0,33.1-26.9,60-60,60H120c-33.1,0-60-26.9-60-60V120
		c0-33.1,26.9-60,60-60H392 M392,0H120C53.7,0,0,53.7,0,120v272c0,66.3,53.7,120,120,120h272c66.3,0,120-53.7,120-120V120
		C512,53.7,458.3,0,392,0L392,0z"/>
</g>
</svg>
